# xmcd
#
# Track frame offsets: 
#        150
#        12658
#        24345
#        37506
#        53735
#        69364
#        91922
#        104584
#        113909
#        125547
#        136915
#        150494
#        163382
#        181005
#        192676
#        203128
#
# Disc length: 2852 seconds
#
# Revision: 0
# Processed by: cddbd v1.5.2PL0 Copyright (c) Steve Scherf et al.
# Submitted via: ExactAudioCopy v0.95b4
#
DISCID=d20b2210
DTITLE=Ben Wasson - Classic Sweet Country: Legacy Edition
DYEAR=2008
DGENRE=Country
TTITLE0=Lonely Much Too Long
TTITLE1=Goodbye Sunshine
TTITLE2=First Thing In The Morning
TTITLE3=Powder Blue
TTITLE4=Everyday Kind Of Man
TTITLE5=Winds Of Change
TTITLE6=I'll Be Going Where I Please
TTITLE7=Everybodys Some Kind Of A Fool
TTITLE8=Macoupin Station Train
TTITLE9=Room #333
TTITLE10=A Cold Day In Dallas
TTITLE11=When Loves Gone Away
TTITLE12=God Bless Ya Brother
TTITLE13=Footsteps Through My Mind
TTITLE14=Wait For Me Virginia
TTITLE15=I Still Remember Loving You
EXTD=
EXTT0=
EXTT1=
EXTT2=
EXTT3=
EXTT4=
EXTT5=
EXTT6=
EXTT7=
EXTT8=
EXTT9=
EXTT10=
EXTT11=
EXTT12=
EXTT13=
EXTT14=
EXTT15=
PLAYORDER=
